# Blender 4.0.2
# www.blender.org
mtllib armored prop.mtl
o Cube
v 1.207582 1.207582 2.249076
v 1.207582 -1.207582 2.249076
v -1.207582 1.207582 2.249076
v -1.207582 -1.207582 2.249076
v 1.732512 1.732513 -1.734249
v 1.732512 -1.732513 -1.734249
v -1.732513 1.732513 -1.734249
v -1.732513 -1.732513 -1.734249
v 1.207582 1.207582 4.633731
v 1.207582 -1.207582 4.633731
v -1.207582 1.207582 4.633731
v -1.207582 -1.207582 4.633731
v 1.732512 -1.732513 -5.342231
v -1.732513 -1.732513 -5.342231
v -1.732513 1.732513 -5.342231
v 1.732512 1.732513 -5.342231
v -1.344463 1.911444 1.344463
v -1.344463 1.911444 -1.344463
v 1.344463 1.911444 1.344463
v 1.344463 1.911444 -1.344463
v -1.344463 3.063355 1.344463
v -1.344463 3.063355 -1.344463
v 1.344463 3.063355 1.344463
v 1.344463 3.063355 -1.344463
v 0.409063 2.312160 1.411145
v -0.409063 2.312160 1.411145
v 0.409063 2.662639 1.411145
v -0.409063 2.662639 1.411145
v 0.409064 2.312160 7.982493
v -0.409063 2.312160 7.982493
v 0.409064 2.662639 7.982493
v -0.409063 2.662639 7.982493
v 1.000000 -1.000000 -0.000000
v 1.000000 1.000000 -0.000000
v 0.980785 -1.000000 0.195090
v 0.980785 1.000000 0.195090
v 0.923880 -1.000000 0.382683
v 0.923880 1.000000 0.382683
v 0.831470 -1.000000 0.555570
v 0.831470 1.000000 0.555570
v 0.707107 -1.000000 0.707107
v 0.707107 1.000000 0.707107
v 0.555570 -1.000000 0.831470
v 0.555570 1.000000 0.831470
v 0.382684 -1.000000 0.923880
v 0.382684 1.000000 0.923880
v 0.195090 -1.000000 0.980785
v 0.195090 1.000000 0.980785
v 0.000000 -1.000000 1.000000
v 0.000000 1.000000 1.000000
v -0.195090 -1.000000 0.980785
v -0.195090 1.000000 0.980785
v -0.382683 -1.000000 0.923880
v -0.382683 1.000000 0.923880
v -0.555570 -1.000000 0.831470
v -0.555570 1.000000 0.831470
v -0.707107 -1.000000 0.707107
v -0.707107 1.000000 0.707107
v -0.831470 -1.000000 0.555570
v -0.831470 1.000000 0.555570
v -0.923880 -1.000000 0.382684
v -0.923880 1.000000 0.382684
v -0.980785 -1.000000 0.195090
v -0.980785 1.000000 0.195090
v -1.000000 -1.000000 0.000000
v -1.000000 1.000000 0.000000
v -0.980785 -1.000000 -0.195090
v -0.980785 1.000000 -0.195090
v -0.923880 -1.000000 -0.382683
v -0.923880 1.000000 -0.382683
v -0.831470 -1.000000 -0.555570
v -0.831470 1.000000 -0.555570
v -0.707107 -1.000000 -0.707107
v -0.707107 1.000000 -0.707107
v -0.555570 -1.000000 -0.831470
v -0.555570 1.000000 -0.831470
v -0.382684 -1.000000 -0.923880
v -0.382684 1.000000 -0.923880
v -0.195090 -1.000000 -0.980785
v -0.195090 1.000000 -0.980785
v -0.000000 -1.000000 -1.000000
v -0.000000 1.000000 -1.000000
v 0.195090 -1.000000 -0.980785
v 0.195090 1.000000 -0.980785
v 0.382683 -1.000000 -0.923880
v 0.382683 1.000000 -0.923880
v 0.555570 -1.000000 -0.831470
v 0.555570 1.000000 -0.831470
v 0.707107 -1.000000 -0.707107
v 0.707107 1.000000 -0.707107
v 0.831470 -1.000000 -0.555570
v 0.831470 1.000000 -0.555570
v 0.923880 -1.000000 -0.382684
v 0.923880 1.000000 -0.382684
v 0.980785 -1.000000 -0.195090
v 0.980785 1.000000 -0.195090
vn -0.9403 0.3256 0.0996
vn -0.9914 -0.0000 0.1307
vn -0.0000 -1.0000 -0.0000
vn -0.0000 -0.9914 0.1307
vn -1.0000 -0.0000 -0.0000
vn 0.9914 -0.0000 0.1307
vn -0.0000 -0.0000 1.0000
vn 1.0000 -0.0000 -0.0000
vn -0.0000 1.0000 -0.0000
vn -0.0000 -0.0000 -1.0000
vn -0.0000 0.9088 -0.4172
vn -0.0000 0.7892 0.6141
vn 0.9403 0.3256 0.0996
vn 0.0711 -0.0000 0.9975
vn -0.0000 0.1642 0.9864
vn -0.0711 -0.0000 0.9975
vn -0.0000 -0.1642 0.9864
vn 0.9952 -0.0000 0.0980
vn 0.9569 -0.0000 0.2903
vn 0.8819 -0.0000 0.4714
vn 0.7730 -0.0000 0.6344
vn 0.6344 -0.0000 0.7730
vn 0.4714 -0.0000 0.8819
vn 0.2903 -0.0000 0.9569
vn 0.0980 -0.0000 0.9952
vn -0.0980 -0.0000 0.9952
vn -0.2903 -0.0000 0.9569
vn -0.4714 -0.0000 0.8819
vn -0.6344 -0.0000 0.7730
vn -0.7730 -0.0000 0.6344
vn -0.8819 -0.0000 0.4714
vn -0.9569 -0.0000 0.2903
vn -0.9952 -0.0000 0.0980
vn -0.9952 -0.0000 -0.0980
vn -0.9569 -0.0000 -0.2903
vn -0.8819 -0.0000 -0.4714
vn -0.7730 -0.0000 -0.6344
vn -0.6344 -0.0000 -0.7730
vn -0.4714 -0.0000 -0.8819
vn -0.2903 -0.0000 -0.9569
vn -0.0980 -0.0000 -0.9952
vn 0.0980 -0.0000 -0.9952
vn 0.2903 -0.0000 -0.9569
vn 0.4714 -0.0000 -0.8819
vn 0.6344 -0.0000 -0.7730
vn 0.7730 -0.0000 -0.6344
vn 0.8819 -0.0000 -0.4714
vn 0.9569 -0.0000 -0.2903
vn 0.9952 -0.0000 -0.0980
vt 0.625000 1.000000
vt 0.625000 0.750000
vt 0.375000 0.750000
vt 0.375000 1.000000
vt 0.125000 0.500000
vt 0.125000 0.750000
vt 0.375000 0.500000
vt 0.375000 0.250000
vt 0.625000 0.250000
vt 0.625000 0.500000
vt 0.375000 0.000000
vt 0.625000 0.000000
vt 0.875000 0.750000
vt 0.875000 0.500000
vt 1.000000 0.500000
vt 1.000000 1.000000
vt 0.968750 1.000000
vt 0.968750 0.500000
vt 0.937500 1.000000
vt 0.937500 0.500000
vt 0.906250 1.000000
vt 0.906250 0.500000
vt 0.875000 1.000000
vt 0.843750 1.000000
vt 0.843750 0.500000
vt 0.812500 1.000000
vt 0.812500 0.500000
vt 0.781250 1.000000
vt 0.781250 0.500000
vt 0.750000 1.000000
vt 0.750000 0.500000
vt 0.718750 1.000000
vt 0.718750 0.500000
vt 0.687500 1.000000
vt 0.687500 0.500000
vt 0.656250 1.000000
vt 0.656250 0.500000
vt 0.593750 1.000000
vt 0.593750 0.500000
vt 0.562500 1.000000
vt 0.562500 0.500000
vt 0.531250 1.000000
vt 0.531250 0.500000
vt 0.500000 1.000000
vt 0.500000 0.500000
vt 0.468750 1.000000
vt 0.468750 0.500000
vt 0.437500 1.000000
vt 0.437500 0.500000
vt 0.406250 1.000000
vt 0.406250 0.500000
vt 0.343750 1.000000
vt 0.343750 0.500000
vt 0.312500 1.000000
vt 0.312500 0.500000
vt 0.281250 1.000000
vt 0.281250 0.500000
vt 0.250000 1.000000
vt 0.250000 0.500000
vt 0.218750 1.000000
vt 0.218750 0.500000
vt 0.187500 1.000000
vt 0.187500 0.500000
vt 0.156250 1.000000
vt 0.156250 0.500000
vt 0.125000 1.000000
vt 0.093750 1.000000
vt 0.093750 0.500000
vt 0.062500 1.000000
vt 0.062500 0.500000
vt 0.296822 0.485388
vt 0.250000 0.490000
vt 0.203178 0.485388
vt 0.158156 0.471731
vt 0.116663 0.449553
vt 0.080294 0.419706
vt 0.050447 0.383337
vt 0.028269 0.341844
vt 0.014612 0.296822
vt 0.010000 0.250000
vt 0.014612 0.203178
vt 0.028269 0.158156
vt 0.050447 0.116663
vt 0.080294 0.080294
vt 0.116663 0.050447
vt 0.158156 0.028269
vt 0.203178 0.014612
vt 0.250000 0.010000
vt 0.296822 0.014612
vt 0.341844 0.028269
vt 0.383337 0.050447
vt 0.419706 0.080294
vt 0.449553 0.116663
vt 0.471731 0.158156
vt 0.485388 0.203178
vt 0.490000 0.250000
vt 0.485388 0.296822
vt 0.471731 0.341844
vt 0.449553 0.383337
vt 0.419706 0.419706
vt 0.383337 0.449553
vt 0.341844 0.471731
vt 0.031250 1.000000
vt 0.031250 0.500000
vt 0.000000 1.000000
vt 0.000000 0.500000
vt 0.750000 0.490000
vt 0.796822 0.485388
vt 0.841844 0.471731
vt 0.883337 0.449553
vt 0.919706 0.419706
vt 0.949553 0.383337
vt 0.971731 0.341844
vt 0.985388 0.296822
vt 0.990000 0.250000
vt 0.985388 0.203178
vt 0.971731 0.158156
vt 0.949553 0.116663
vt 0.919706 0.080294
vt 0.883337 0.050447
vt 0.841844 0.028269
vt 0.796822 0.014612
vt 0.750000 0.010000
vt 0.703178 0.014612
vt 0.658156 0.028269
vt 0.616663 0.050447
vt 0.580294 0.080294
vt 0.550447 0.116663
vt 0.528269 0.158156
vt 0.514612 0.203178
vt 0.510000 0.250000
vt 0.514612 0.296822
vt 0.528269 0.341844
vt 0.550447 0.383337
vt 0.580294 0.419706
vt 0.616663 0.449553
vt 0.658156 0.471731
vt 0.703178 0.485388
s 0
usemtl Material
f 7/1/1 3/2/1 17/2/1 18/1/1
f 4/3/2 3/2/2 7/1/2 8/4/2
f 6/5/3 8/6/3 14/6/3 13/5/3
f 6/5/4 2/7/4 4/3/4 8/6/4
f 3/2/5 4/3/5 12/3/5 11/2/5
f 6/8/6 5/9/6 1/10/6 2/7/6
f 10/7/7 9/10/7 11/2/7 12/3/7
f 2/7/8 1/10/8 9/10/8 10/7/8
f 4/3/3 2/7/3 10/7/3 12/3/3
f 1/10/9 3/2/9 11/2/9 9/10/9
f 14/11/10 15/12/10 16/9/10 13/8/10
f 7/13/9 5/14/9 16/14/9 15/13/9
f 5/9/8 6/8/8 13/8/8 16/9/8
f 8/4/5 7/1/5 15/1/5 14/4/5
f 20/14/10 18/13/10 22/13/10 24/14/10
f 5/14/11 7/13/11 18/13/11 20/14/11
f 3/2/12 1/10/12 19/10/12 17/2/12
f 1/10/13 5/9/13 20/9/13 19/10/13
f 23/10/9 24/14/9 22/13/9 21/2/9
f 18/1/5 17/2/5 21/2/5 22/1/5
f 19/10/8 20/9/8 24/9/8 23/10/8
f 19/10/14 23/10/14 27/10/14 25/10/14
f 27/10/9 28/2/9 32/2/9 31/10/9
f 23/10/15 21/2/15 28/2/15 27/10/15
f 21/2/16 17/2/16 26/2/16 28/2/16
f 17/2/17 19/10/17 25/10/17 26/2/17
f 30/2/7 29/10/7 31/10/7 32/2/7
f 28/2/5 26/2/5 30/2/5 32/2/5
f 26/2/3 25/10/3 29/10/3 30/2/3
f 25/10/8 27/10/8 31/10/8 29/10/8
f 33/15/18 34/16/18 36/17/18 35/18/18
f 35/18/19 36/17/19 38/19/19 37/20/19
f 37/20/20 38/19/20 40/21/20 39/22/20
f 39/22/21 40/21/21 42/23/21 41/14/21
f 41/14/22 42/23/22 44/24/22 43/25/22
f 43/25/23 44/24/23 46/26/23 45/27/23
f 45/27/24 46/26/24 48/28/24 47/29/24
f 47/29/25 48/28/25 50/30/25 49/31/25
f 49/31/26 50/30/26 52/32/26 51/33/26
f 51/33/27 52/32/27 54/34/27 53/35/27
f 53/35/28 54/34/28 56/36/28 55/37/28
f 55/37/29 56/36/29 58/1/29 57/10/29
f 57/10/30 58/1/30 60/38/30 59/39/30
f 59/39/31 60/38/31 62/40/31 61/41/31
f 61/41/32 62/40/32 64/42/32 63/43/32
f 63/43/33 64/42/33 66/44/33 65/45/33
f 65/45/34 66/44/34 68/46/34 67/47/34
f 67/47/35 68/46/35 70/48/35 69/49/35
f 69/49/36 70/48/36 72/50/36 71/51/36
f 71/51/37 72/50/37 74/4/37 73/7/37
f 73/7/38 74/4/38 76/52/38 75/53/38
f 75/53/39 76/52/39 78/54/39 77/55/39
f 77/55/40 78/54/40 80/56/40 79/57/40
f 79/57/41 80/56/41 82/58/41 81/59/41
f 81/59/42 82/58/42 84/60/42 83/61/42
f 83/61/43 84/60/43 86/62/43 85/63/43
f 85/63/44 86/62/44 88/64/44 87/65/44
f 87/65/45 88/64/45 90/66/45 89/5/45
f 89/5/46 90/66/46 92/67/46 91/68/46
f 91/68/47 92/67/47 94/69/47 93/70/47
f 36/71/9 34/72/9 96/73/9 94/74/9 92/75/9 90/76/9 88/77/9 86/78/9 84/79/9 82/80/9 80/81/9 78/82/9 76/83/9 74/84/9 72/85/9 70/86/9 68/87/9 66/88/9 64/89/9 62/90/9 60/91/9 58/92/9 56/93/9 54/94/9 52/95/9 50/96/9 48/97/9 46/98/9 44/99/9 42/100/9 40/101/9 38/102/9
f 93/70/48 94/69/48 96/103/48 95/104/48
f 95/104/49 96/103/49 34/105/49 33/106/49
f 33/107/3 35/108/3 37/109/3 39/110/3 41/111/3 43/112/3 45/113/3 47/114/3 49/115/3 51/116/3 53/117/3 55/118/3 57/119/3 59/120/3 61/121/3 63/122/3 65/123/3 67/124/3 69/125/3 71/126/3 73/127/3 75/128/3 77/129/3 79/130/3 81/131/3 83/132/3 85/133/3 87/134/3 89/135/3 91/136/3 93/137/3 95/138/3
o Cylinder
v -1.182053 1.212531 3.490830
v -4.382835 1.212531 3.490830
v -1.182053 1.181780 3.803051
v -4.382835 1.181780 3.803051
v -1.182053 1.090708 4.103272
v -4.382835 1.090708 4.103273
v -1.182053 0.942816 4.379959
v -4.382835 0.942816 4.379959
v -1.182053 0.743787 4.622477
v -4.382835 0.743787 4.622477
v -1.182053 0.501269 4.821507
v -4.382835 0.501269 4.821507
v -1.182053 0.224582 4.969398
v -4.382835 0.224583 4.969398
v -1.182053 -0.075640 5.060470
v -4.382835 -0.075640 5.060470
v -1.182053 -0.387861 5.091221
v -4.382835 -0.387860 5.091221
v -1.182053 -0.700082 5.060470
v -4.382835 -0.700081 5.060470
v -1.182053 -1.000304 4.969398
v -4.382835 -1.000304 4.969398
v -1.182053 -1.276991 4.821507
v -4.382835 -1.276991 4.821507
v -1.182053 -1.519508 4.622477
v -4.382835 -1.519508 4.622477
v -1.182053 -1.718538 4.379959
v -4.382835 -1.718537 4.379959
v -1.182053 -1.866430 4.103272
v -4.382835 -1.866430 4.103273
v -1.182053 -1.957501 3.803051
v -4.382835 -1.957501 3.803051
v -1.182053 -1.988252 3.490830
v -4.382835 -1.988252 3.490830
v -1.182053 -1.957501 3.178609
v -4.382835 -1.957501 3.178609
v -1.182053 -1.866430 2.878387
v -4.382835 -1.866430 2.878387
v -1.182053 -1.718538 2.601700
v -4.382835 -1.718537 2.601701
v -1.182053 -1.519508 2.359182
v -4.382835 -1.519508 2.359183
v -1.182053 -1.276991 2.160153
v -4.382836 -1.276991 2.160153
v -1.182053 -1.000304 2.012261
v -4.382836 -1.000304 2.012261
v -1.182053 -0.700082 1.921189
v -4.382836 -0.700081 1.921189
v -1.182053 -0.387861 1.890438
v -4.382836 -0.387860 1.890439
v -1.182053 -0.075640 1.921189
v -4.382836 -0.075640 1.921189
v -1.182053 0.224582 2.012261
v -4.382836 0.224583 2.012261
v -1.182053 0.501269 2.160153
v -4.382836 0.501269 2.160153
v -1.182053 0.743787 2.359182
v -4.382835 0.743787 2.359183
v -1.182053 0.942816 2.601700
v -4.382835 0.942816 2.601701
v -1.182053 1.090708 2.878387
v -4.382835 1.090708 2.878387
v -1.182053 1.181780 3.178609
v -4.382835 1.181780 3.178609
v 1.182053 1.212531 3.490830
v 4.382835 1.212531 3.490830
v 1.182053 1.181780 3.803051
v 4.382835 1.181780 3.803051
v 1.182053 1.090708 4.103272
v 4.382835 1.090708 4.103273
v 1.182053 0.942816 4.379959
v 4.382835 0.942816 4.379959
v 1.182053 0.743787 4.622477
v 4.382835 0.743787 4.622477
v 1.182053 0.501269 4.821507
v 4.382835 0.501269 4.821507
v 1.182053 0.224582 4.969398
v 4.382835 0.224583 4.969398
v 1.182053 -0.075640 5.060470
v 4.382835 -0.075640 5.060470
v 1.182053 -0.387861 5.091221
v 4.382835 -0.387860 5.091221
v 1.182053 -0.700082 5.060470
v 4.382835 -0.700081 5.060470
v 1.182053 -1.000304 4.969398
v 4.382835 -1.000304 4.969398
v 1.182053 -1.276991 4.821507
v 4.382835 -1.276991 4.821507
v 1.182053 -1.519508 4.622477
v 4.382835 -1.519508 4.622477
v 1.182053 -1.718538 4.379959
v 4.382835 -1.718537 4.379959
v 1.182053 -1.866430 4.103272
v 4.382835 -1.866430 4.103273
v 1.182053 -1.957501 3.803051
v 4.382835 -1.957501 3.803051
v 1.182053 -1.988252 3.490830
v 4.382835 -1.988252 3.490830
v 1.182053 -1.957501 3.178609
v 4.382835 -1.957501 3.178609
v 1.182053 -1.866430 2.878387
v 4.382835 -1.866430 2.878387
v 1.182053 -1.718538 2.601700
v 4.382835 -1.718537 2.601701
v 1.182053 -1.519508 2.359182
v 4.382835 -1.519508 2.359183
v 1.182053 -1.276991 2.160153
v 4.382836 -1.276991 2.160153
v 1.182053 -1.000304 2.012261
v 4.382836 -1.000304 2.012261
v 1.182053 -0.700082 1.921189
v 4.382836 -0.700081 1.921189
v 1.182053 -0.387861 1.890438
v 4.382836 -0.387860 1.890439
v 1.182053 -0.075640 1.921189
v 4.382836 -0.075640 1.921189
v 1.182053 0.224582 2.012261
v 4.382836 0.224583 2.012261
v 1.182053 0.501269 2.160153
v 4.382836 0.501269 2.160153
v 1.182053 0.743787 2.359182
v 4.382835 0.743787 2.359183
v 1.182053 0.942816 2.601700
v 4.382835 0.942816 2.601701
v 1.182053 1.090708 2.878387
v 4.382835 1.090708 2.878387
v 1.182053 1.181780 3.178609
v 4.382835 1.181780 3.178609
vn -0.0000 0.9952 0.0980
vn -0.0000 0.9569 0.2903
vn -0.0000 0.8819 0.4714
vn -0.0000 0.7730 0.6344
vn -0.0000 0.6344 0.7730
vn -0.0000 0.4714 0.8819
vn -0.0000 0.2903 0.9569
vn -0.0000 0.0980 0.9952
vn -0.0000 -0.0980 0.9952
vn -0.0000 -0.2903 0.9569
vn -0.0000 -0.4714 0.8819
vn -0.0000 -0.6344 0.7730
vn -0.0000 -0.7730 0.6344
vn -0.0000 -0.8819 0.4714
vn -0.0000 -0.9569 0.2903
vn -0.0000 -0.9952 0.0980
vn -0.0000 -0.9952 -0.0980
vn -0.0000 -0.9569 -0.2903
vn -0.0000 -0.8819 -0.4714
vn -0.0000 -0.7730 -0.6344
vn -0.0000 -0.6344 -0.7730
vn -0.0000 -0.4714 -0.8819
vn -0.0000 -0.2903 -0.9569
vn -0.0000 -0.0980 -0.9952
vn -0.0000 0.0980 -0.9952
vn -0.0000 0.2903 -0.9569
vn -0.0000 0.4714 -0.8819
vn -0.0000 0.6344 -0.7730
vn -0.0000 0.7730 -0.6344
vn -0.0000 0.8819 -0.4714
vn -1.0000 -0.0000 -0.0000
vn -0.0000 0.9569 -0.2903
vn -0.0000 0.9952 -0.0980
vn 1.0000 -0.0000 -0.0000
vt 1.000000 0.500000
vt 1.000000 1.000000
vt 0.968750 1.000000
vt 0.968750 0.500000
vt 0.937500 1.000000
vt 0.937500 0.500000
vt 0.906250 1.000000
vt 0.906250 0.500000
vt 0.875000 1.000000
vt 0.875000 0.500000
vt 0.843750 1.000000
vt 0.843750 0.500000
vt 0.812500 1.000000
vt 0.812500 0.500000
vt 0.781250 1.000000
vt 0.781250 0.500000
vt 0.750000 1.000000
vt 0.750000 0.500000
vt 0.718750 1.000000
vt 0.718750 0.500000
vt 0.687500 1.000000
vt 0.687500 0.500000
vt 0.656250 1.000000
vt 0.656250 0.500000
vt 0.625000 1.000000
vt 0.625000 0.500000
vt 0.593750 1.000000
vt 0.593750 0.500000
vt 0.562500 1.000000
vt 0.562500 0.500000
vt 0.531250 1.000000
vt 0.531250 0.500000
vt 0.500000 1.000000
vt 0.500000 0.500000
vt 0.468750 1.000000
vt 0.468750 0.500000
vt 0.437500 1.000000
vt 0.437500 0.500000
vt 0.406250 1.000000
vt 0.406250 0.500000
vt 0.375000 1.000000
vt 0.375000 0.500000
vt 0.343750 1.000000
vt 0.343750 0.500000
vt 0.312500 1.000000
vt 0.312500 0.500000
vt 0.281250 1.000000
vt 0.281250 0.500000
vt 0.250000 1.000000
vt 0.250000 0.500000
vt 0.218750 1.000000
vt 0.218750 0.500000
vt 0.187500 1.000000
vt 0.187500 0.500000
vt 0.156250 1.000000
vt 0.156250 0.500000
vt 0.125000 1.000000
vt 0.125000 0.500000
vt 0.093750 1.000000
vt 0.093750 0.500000
vt 0.062500 1.000000
vt 0.062500 0.500000
vt 0.296822 0.485388
vt 0.250000 0.490000
vt 0.203178 0.485388
vt 0.158156 0.471731
vt 0.116663 0.449553
vt 0.080294 0.419706
vt 0.050447 0.383337
vt 0.028269 0.341844
vt 0.014612 0.296822
vt 0.010000 0.250000
vt 0.014612 0.203178
vt 0.028269 0.158156
vt 0.050447 0.116663
vt 0.080294 0.080294
vt 0.116663 0.050447
vt 0.158156 0.028269
vt 0.203178 0.014612
vt 0.250000 0.010000
vt 0.296822 0.014612
vt 0.341844 0.028269
vt 0.383337 0.050447
vt 0.419706 0.080294
vt 0.449553 0.116663
vt 0.471731 0.158156
vt 0.485388 0.203178
vt 0.490000 0.250000
vt 0.485388 0.296822
vt 0.471731 0.341844
vt 0.449553 0.383337
vt 0.419706 0.419706
vt 0.383337 0.449553
vt 0.341844 0.471731
vt 0.031250 1.000000
vt 0.031250 0.500000
vt 0.000000 1.000000
vt 0.000000 0.500000
vt 0.750000 0.490000
vt 0.796822 0.485388
vt 0.841844 0.471731
vt 0.883337 0.449553
vt 0.919706 0.419706
vt 0.949553 0.383337
vt 0.971731 0.341844
vt 0.985388 0.296822
vt 0.990000 0.250000
vt 0.985388 0.203178
vt 0.971731 0.158156
vt 0.949553 0.116663
vt 0.919706 0.080294
vt 0.883337 0.050447
vt 0.841844 0.028269
vt 0.796822 0.014612
vt 0.750000 0.010000
vt 0.703178 0.014612
vt 0.658156 0.028269
vt 0.616663 0.050447
vt 0.580294 0.080294
vt 0.550447 0.116663
vt 0.528269 0.158156
vt 0.514612 0.203178
vt 0.510000 0.250000
vt 0.514612 0.296822
vt 0.528269 0.341844
vt 0.550447 0.383337
vt 0.580294 0.419706
vt 0.616663 0.449553
vt 0.658156 0.471731
vt 0.703178 0.485388
s 0
f 97/139/50 98/140/50 100/141/50 99/142/50
f 99/142/51 100/141/51 102/143/51 101/144/51
f 101/144/52 102/143/52 104/145/52 103/146/52
f 103/146/53 104/145/53 106/147/53 105/148/53
f 105/148/54 106/147/54 108/149/54 107/150/54
f 107/150/55 108/149/55 110/151/55 109/152/55
f 109/152/56 110/151/56 112/153/56 111/154/56
f 111/154/57 112/153/57 114/155/57 113/156/57
f 113/156/58 114/155/58 116/157/58 115/158/58
f 115/158/59 116/157/59 118/159/59 117/160/59
f 117/160/60 118/159/60 120/161/60 119/162/60
f 119/162/61 120/161/61 122/163/61 121/164/61
f 121/164/62 122/163/62 124/165/62 123/166/62
f 123/166/63 124/165/63 126/167/63 125/168/63
f 125/168/64 126/167/64 128/169/64 127/170/64
f 127/170/65 128/169/65 130/171/65 129/172/65
f 129/172/66 130/171/66 132/173/66 131/174/66
f 131/174/67 132/173/67 134/175/67 133/176/67
f 133/176/68 134/175/68 136/177/68 135/178/68
f 135/178/69 136/177/69 138/179/69 137/180/69
f 137/180/70 138/179/70 140/181/70 139/182/70
f 139/182/71 140/181/71 142/183/71 141/184/71
f 141/184/72 142/183/72 144/185/72 143/186/72
f 143/186/73 144/185/73 146/187/73 145/188/73
f 145/188/74 146/187/74 148/189/74 147/190/74
f 147/190/75 148/189/75 150/191/75 149/192/75
f 149/192/76 150/191/76 152/193/76 151/194/76
f 151/194/77 152/193/77 154/195/77 153/196/77
f 153/196/78 154/195/78 156/197/78 155/198/78
f 155/198/79 156/197/79 158/199/79 157/200/79
f 100/201/80 98/202/80 160/203/80 158/204/80 156/205/80 154/206/80 152/207/80 150/208/80 148/209/80 146/210/80 144/211/80 142/212/80 140/213/80 138/214/80 136/215/80 134/216/80 132/217/80 130/218/80 128/219/80 126/220/80 124/221/80 122/222/80 120/223/80 118/224/80 116/225/80 114/226/80 112/227/80 110/228/80 108/229/80 106/230/80 104/231/80 102/232/80
f 157/200/81 158/199/81 160/233/81 159/234/81
f 159/234/82 160/233/82 98/235/82 97/236/82
f 97/237/83 99/238/83 101/239/83 103/240/83 105/241/83 107/242/83 109/243/83 111/244/83 113/245/83 115/246/83 117/247/83 119/248/83 121/249/83 123/250/83 125/251/83 127/252/83 129/253/83 131/254/83 133/255/83 135/256/83 137/257/83 139/258/83 141/259/83 143/260/83 145/261/83 147/262/83 149/263/83 151/264/83 153/265/83 155/266/83 157/267/83 159/268/83
f 161/139/50 163/142/50 164/141/50 162/140/50
f 163/142/51 165/144/51 166/143/51 164/141/51
f 165/144/52 167/146/52 168/145/52 166/143/52
f 167/146/53 169/148/53 170/147/53 168/145/53
f 169/148/54 171/150/54 172/149/54 170/147/54
f 171/150/55 173/152/55 174/151/55 172/149/55
f 173/152/56 175/154/56 176/153/56 174/151/56
f 175/154/57 177/156/57 178/155/57 176/153/57
f 177/156/58 179/158/58 180/157/58 178/155/58
f 179/158/59 181/160/59 182/159/59 180/157/59
f 181/160/60 183/162/60 184/161/60 182/159/60
f 183/162/61 185/164/61 186/163/61 184/161/61
f 185/164/62 187/166/62 188/165/62 186/163/62
f 187/166/63 189/168/63 190/167/63 188/165/63
f 189/168/64 191/170/64 192/169/64 190/167/64
f 191/170/65 193/172/65 194/171/65 192/169/65
f 193/172/66 195/174/66 196/173/66 194/171/66
f 195/174/67 197/176/67 198/175/67 196/173/67
f 197/176/68 199/178/68 200/177/68 198/175/68
f 199/178/69 201/180/69 202/179/69 200/177/69
f 201/180/70 203/182/70 204/181/70 202/179/70
f 203/182/71 205/184/71 206/183/71 204/181/71
f 205/184/72 207/186/72 208/185/72 206/183/72
f 207/186/73 209/188/73 210/187/73 208/185/73
f 209/188/74 211/190/74 212/189/74 210/187/74
f 211/190/75 213/192/75 214/191/75 212/189/75
f 213/192/76 215/194/76 216/193/76 214/191/76
f 215/194/77 217/196/77 218/195/77 216/193/77
f 217/196/78 219/198/78 220/197/78 218/195/78
f 219/198/79 221/200/79 222/199/79 220/197/79
f 164/201/83 166/232/83 168/231/83 170/230/83 172/229/83 174/228/83 176/227/83 178/226/83 180/225/83 182/224/83 184/223/83 186/222/83 188/221/83 190/220/83 192/219/83 194/218/83 196/217/83 198/216/83 200/215/83 202/214/83 204/213/83 206/212/83 208/211/83 210/210/83 212/209/83 214/208/83 216/207/83 218/206/83 220/205/83 222/204/83 224/203/83 162/202/83
f 221/200/81 223/234/81 224/233/81 222/199/81
f 223/234/82 161/236/82 162/235/82 224/233/82
f 161/237/80 223/268/80 221/267/80 219/266/80 217/265/80 215/264/80 213/263/80 211/262/80 209/261/80 207/260/80 205/259/80 203/258/80 201/257/80 199/256/80 197/255/80 195/254/80 193/253/80 191/252/80 189/251/80 187/250/80 185/249/80 183/248/80 181/247/80 179/246/80 177/245/80 175/244/80 173/243/80 171/242/80 169/241/80 167/240/80 165/239/80 163/238/80
